#!OML:ASF H:\Male1\Project 1\Capture day 1\Session 1\Male1.ASF
:FULLY-SPECIFIED
:DEGREES
283
root 7.21099 15.6874 1.36499 -363.743 -152.897 337.87
lowerback 34.5796 1.07378 5.95802
upperback 13.0442 0.183038 0.000768376
thorax -3.02587 -0.97908 -3.12746
lowerneck -4.09542 10.5495 17.9868
upperneck 1.5053 14.4332 -25.2564
head 4.5005 6.70058 -9.99304
rclavicle -1.90833e-014 -7.63333e-014
rhumerus 4.571 27.7493 -41.6655
rradius 126.875
rwrist -17.5112
rhand -20.775 14.7864
rfingers 7.12502
rthumb 5.59161 -15.1198
lclavicle -1.90833e-014 -7.63333e-014
lhumerus -60.7708 -14.9685 101.822
lradius 38.31
lwrist -3.31237
lhand -23.1855 -0.639211
lfingers 7.12502
lthumb 3.26395 29.3156
rfemur -0.973426 0.799357 5.87554
rtibia 28.4079
rfoot -15.2183 -9.58434
rtoes -19.3276
lfemur -120.267 33.3239 -37.8304
ltibia 142.049
lfoot -17.248 -1.08111
ltoes -25.4113
284
root 7.04894 15.7838 1.35429 -363.279 -154.422 335.097
lowerback 35.3298 1.12906 4.67019
upperback 13.5174 -0.444661 -1.15034
thorax -2.87804 -1.37168 -3.44456
lowerneck -3.73795 10.7296 17.5155
upperneck 1.00298 14.6763 -25.4229
head 4.32817 6.84316 -9.95217
rclavicle -5.88403e-014 -5.08889e-014
rhumerus 5.36008 26.7888 -40.5825
rradius 127.043
rwrist -17.667
rhand -20.7554 14.8604
rfingers 7.12502
rthumb 5.61049 -15.0454
lclavicle -5.88403e-014 -5.08889e-014
lhumerus -60.9173 -15.1942 102.182
lradius 37.8697
lwrist -3.28531
lhand -22.812 -0.435482
lfingers 7.12502
lthumb 3.62466 29.5134
rfemur 0.0931199 2.33816 2.98761
rtibia 27.2836
rfoot -14.6144 -10.8835
rtoes -17.252
lfemur -122.14 36.4743 -36.4543
ltibia 139.209
lfoot -17.0251 -4.24549
ltoes -17.334
285
root 6.90778 15.8957 1.35129 -362.856 -155.48 332.317
lowerback 36.0881 1.07562 3.41354
upperback 13.9545 -1.23519 -2.35344
thorax -2.77827 -1.85357 -3.77389
lowerneck -3.36283 10.9131 17.3841
upperneck 0.46096 14.9157 -25.7967
head 4.18918 6.98793 -10.0461
rclavicle -3.02153e-014 -9.54166e-015
rhumerus 5.84758 25.7043 -39.6367
rradius 127.171
rwrist -17.7367
rhand -20.9498 14.9674
rfingers 7.12502
rthumb 5.42284 -14.9433
lclavicle -3.02153e-014 -9.54166e-015
lhumerus -61.0411 -15.6501 102.524
lradius 37.4551
lwrist -3.22613
lhand -22.3176 -0.302517
lfingers 7.12502
lthumb 4.10209 29.6377
rfemur 1.26592 3.9634 0.191718
rtibia 26.0188
rfoot -14.1707 -12.7175
rtoes -14.1331
lfemur -121.063 38.1371 -33.1532
ltibia 135.409
lfoot -16.2392 -3.80956
ltoes -12.9335
286
root 6.76732 16.0084 1.34274 -362.776 -157.004 330.73
lowerback 36.4116 1.06232 2.96875
upperback 14.3604 -1.68586 -3.42649
thorax -2.5309 -2.12998 -4.51869
lowerneck -2.92158 11.0541 17.4886
upperneck -0.0747079 15.0992 -26.2383
head 4.05552 7.11432 -10.2176
rclavicle -1.90833e-014 -1.90833e-014
rhumerus 5.88381 24.6068 -38.807
rradius 127.345
rwrist -17.7292
rhand -21.1613 15.1168
rfingers 7.12502
rthumb 5.21864 -14.7989
lclavicle -1.90833e-014 -1.90833e-014
lhumerus -61.2732 -16.4196 102.926
lradius 37.1899
lwrist -2.93663
lhand -21.8938 -0.104164
lfingers 7.12502
lthumb 4.51136 29.8278
rfemur 2.0503 6.25205 -1.19221
rtibia 24.5757
rfoot -13.2364 -15.1458
rtoes -12.8148
lfemur -118.827 40.5582 -28.0301
ltibia 131.014
lfoot -14.7596 -3.81288
ltoes -9.72889
287
root 6.62441 16.1071 1.33037 -362.913 -158.799 328.448
lowerback 36.9564 1.43348 1.66568
upperback 14.8133 -2.03391 -4.56067
thorax -2.30051 -2.42936 -4.90775
lowerneck -2.39238 11.2027 17.2938
upperneck -0.655479 15.2867 -26.471
head 3.84877 7.25401 -10.27
rclavicle -3.18055e-014 -4.13472e-014
rhumerus 5.68184 23.6401 -37.7643
rradius 127.629
rwrist -17.8572
rhand -21.1679 15.1389
rfingers 7.12502
rthumb 5.21227 -14.777
lclavicle -3.18055e-014 -4.13472e-014
lhumerus -61.8592 -17.4413 103.794
lradius 37.3377
lwrist -2.08988
lhand -21.368 0.503382
lfingers 7.12502
lthumb 5.01907 30.4239
rfemur 3.18056 8.21387 -3.32395
rtibia 22.9656
rfoot -12.0173 -17.1151
rtoes -11.9002
lfemur -112.9 42.6437 -21.2607
ltibia 125.736
lfoot -12.4518 -4.15745
ltoes -1.10123
288
root 6.52465 16.2269 1.31845 -362.354 -160.158 328.828
lowerback 36.0361 1.06406 2.24486
upperback 14.7675 -2.29368 -5.13776
thorax -2.11887 -2.4902 -5.75835
lowerneck -1.69126 11.3551 17.1059
upperneck -1.27622 15.4866 -26.6272
head 3.59589 7.41867 -10.3077
rclavicle 7.79236e-014 3.18055e-015
rhumerus 5.35533 22.8017 -36.9803
rradius 127.767
rwrist -17.9671
rhand -20.9137 14.9986
rfingers 7.12502
rthumb 5.45768 -14.9111
lclavicle 7.79236e-014 3.18055e-015
lhumerus -62.9253 -18.6617 104.911
lradius 37.9383
lwrist -0.629841
lhand -20.6961 1.34584
lfingers 7.12502
lthumb 5.66779 31.25
rfemur 2.91359 9.22412 -2.55479
rtibia 21.15
rfoot -11.3017 -20.0805
rtoes -8.0538
lfemur -106.73 42.8022 -11.7463
ltibia 119.096
lfoot -9.79701 -3.93015
ltoes -8.70578
289
root 6.43214 16.3284 1.29363 -361.648 -161.847 327.189
lowerback 35.3835 1.31599 0.986974
upperback 14.7657 -2.52365 -6.21875
thorax -1.97903 -2.6561 -6.17185
lowerneck -0.74224 11.4909 17.1911
upperneck -1.80564 15.714 -26.8737
head 3.36496 7.61644 -10.4383
rclavicle 1.43125e-014 7.79236e-014
rhumerus 4.82924 22.1568 -36.703
rradius 127.682
rwrist -18.0154
rhand -20.5316 15.0808
rfingers 7.12502
rthumb 5.82661 -14.8191
lclavicle 1.43125e-014 7.79236e-014
lhumerus -63.7568 -19.2066 105.337
lradius 38.0092
lwrist 0.280875
lhand -19.9378 1.77259
lfingers 7.12502
lthumb 6.39986 31.6559
rfemur 2.96297 9.30688 -4.06979
rtibia 19.2406
rfoot -10.5844 -22.3677
rtoes -4.90727
lfemur -97.004 41.8099 -3.11604
ltibia 111.489
lfoot -6.23869 -3.17584
ltoes -9.31717
290
root 6.35718 16.4193 1.25622 -361.126 -163.732 325.724
lowerback 34.7247 1.65208 -0.35732
upperback 14.6631 -2.65762 -7.24142
thorax -1.91877 -2.78812 -6.5056
lowerneck 0.161334 11.691 17.3713
upperneck -2.178 16.0622 -27.2554
head 3.23873 7.86457 -10.6149
rclavicle 7.95139e-015 1.59028e-014
rhumerus 4.21382 21.7751 -36.4849
rradius 127.563
rwrist -18.0724
rhand -20.4832 15.4394
rfingers 7.12502
rthumb 5.8733 -14.4592
lclavicle 7.95139e-015 1.59028e-014
lhumerus -64.1231 -19.0591 105.229
lradius 37.3827
lwrist 0.47612
lhand -19.1109 1.95074
lfingers 7.12502
lthumb 7.1981 31.8083
rfemur 3.07093 9.3052 -5.46515
rtibia 17.1076
rfoot -10.3954 -24.1899
rtoes -0.463697
lfemur -86.2407 39.72 5.11051
ltibia 102.998
lfoot -2.23024 -1.58843
ltoes -13.18
291
root 6.32522 16.4996 1.21995 -360.098 -165.192 325.17
lowerback 33.2373 1.60271 -1.1846
upperback 14.3296 -2.87708 -7.97469
thorax -1.80403 -2.886 -6.79345
lowerneck 1.0048 11.9836 17.4656
upperneck -2.48039 16.5451 -27.6195
head 3.16679 8.17336 -10.7491
rclavicle 5.40694e-014 2.70347e-014
rhumerus 3.54818 21.7042 -36.2618
rradius 127.58
rwrist -18.2086
rhand -20.684 15.6806
rfingers 7.12502
rthumb 5.67949 -14.2233
lclavicle 5.40694e-014 2.70347e-014
lhumerus -64.3839 -18.5477 104.981
lradius 36.5512
lwrist 0.31666
lhand -18.4379 2.10829
lfingers 7.12502
lthumb 7.84772 31.9426
rfemur 2.61284 9.32525 -5.87655
rtibia 14.8815
rfoot -10.5634 -25.944
rtoes 4.42186
lfemur -76.9027 36.5268 11.8346
ltibia 93.7199
lfoot 1.29974 3.94715
ltoes 5.49141
292
root 6.28002 16.5403 1.16368 -359.388 -166.476 324.32
lowerback 31.9037 1.50014 -2.17913
upperback 14.0304 -3.2517 -8.73679
thorax -1.69542 -3.09217 -6.97338
lowerneck 1.98278 12.3005 17.3504
upperneck -2.79906 17.0589 -27.8631
head 3.04246 8.51042 -10.8143
rclavicle 1.90833e-014 3.18055e-014
rhumerus 2.8134 21.9169 -36.1253
rradius 127.736
rwrist -18.5092
rhand -20.8002 15.7127
rfingers 7.12502
rthumb 5.56722 -14.1941
lclavicle 1.90833e-014 3.18055e-014
lhumerus -64.5857 -17.5881 104.551
lradius 35.5492
lwrist -0.197071
lhand -17.6643 2.13778
lfingers 7.12502
lthumb 8.59434 31.9429
rfemur 2.92657 9.26365 -6.7827
rtibia 12.2888
rfoot -9.99796 -26.9763
rtoes 5.80367
lfemur -67.9745 32.9571 16.7318
ltibia 84.4253
lfoot 2.80317 9.45359
ltoes 9.38731
293
root 6.2377 16.5656 1.10268 -359.009 -167.52 323.68
lowerback 30.8154 1.2611 -2.79906
upperback 13.718 -3.69056 -9.42252
thorax -1.69445 -3.31896 -7.25083
lowerneck 2.98624 12.5658 17.2576
upperneck -3.05888 17.5044 -28.0769
head 2.91358 8.81525 -10.8884
rclavicle -3.18055e-015 3.97569e-014
rhumerus 1.74839 22.2349 -36.0326
rradius 128.043
rwrist -19.0177
rhand -20.8839 15.6379
rfingers 7.12502
rthumb 5.48645 -14.2711
lclavicle -3.18055e-015 3.97569e-014
lhumerus -65.0893 -16.9551 104.4
lradius 34.6684
lwrist -0.510398
lhand -16.3975 2.29052
lfingers 7.12502
lthumb 9.81666 32.0417
rfemur 3.73301 9.38712 -7.56166
rtibia 9.62111
rfoot -9.38134 -27.6256
rtoes 6.00581
lfemur -59.7785 29.0873 20.3315
ltibia 75.4503
lfoot 1.32307 16.5822
ltoes 19.9807
294
root 6.19349 16.5742 1.03824 -358.886 -168.548 323.652
lowerback 29.6144 0.954657 -2.82595
upperback 13.458 -4.02104 -9.69963
thorax -1.64383 -3.46808 -7.96059
lowerneck 3.80549 12.8185 17.3075
upperneck -3.12925 17.9519 -28.23
head 2.87811 9.10215 -10.95
rclavicle 5.56597e-014 4.77083e-015
rhumerus 0.329558 22.4737 -35.9564
rradius 128.526
rwrist -19.6712
rhand -20.9497 15.5162
rfingers 7.12502
rthumb 5.42296 -14.3944
lclavicle 5.56597e-014 4.77083e-015
lhumerus -65.6856 -16.7008 104.491
lradius 33.7328
lwrist -0.622652
lhand -14.7258 2.49031
lfingers 7.12502
lthumb 11.4292 32.1588
rfemur 4.705 9.55364 -7.76182
rtibia 6.99071
rfoot -8.93534 -27.645
rtoes 6.77028
lfemur -51.9266 25.0329 23.8055
ltibia 66.7018
lfoot -2.47271 20.3893
ltoes 23.6849
295
root 6.1434 16.5586 0.972014 -358.939 -169.67 323.636
lowerback 28.7663 0.770357 -2.91937
upperback 13.0871 -4.21001 -10.1051
thorax -1.73125 -3.54405 -8.3116
lowerneck 4.36201 13.1206 17.4156
upperneck -2.92199 18.4949 -28.39
head 2.99707 9.40535 -10.9841
rclavicle 2.94201e-014 2.8625e-014
rhumerus -1.376 22.6373 -35.8313
rradius 129.132
rwrist -20.0055
rhand -20.8258 15.5099
rfingers 7.12502
rthumb 5.5425 -14.3976
lclavicle 2.94201e-014 2.8625e-014
lhumerus -65.9884 -16.2835 104.562
lradius 32.3813
lwrist -0.613609
lhand -12.9952 2.52456
lfingers 7.12502
lthumb 13.0978 32.0933
rfemur 5.24721 9.88503 -7.97286
rtibia 5.40582
rfoot -8.52002 -27.3326
rtoes 6.23755
lfemur -44.6664 21.2739 26.2197
ltibia 59.0046
lfoot -7.48845 20.6258
ltoes 25.3258
